<svg viewBox="-103 0 512 512.001" xmlns="http://www.w3.org/2000/svg"><path d="m135.992188 84.3125v-76.917969h-83.839844v76.917969c0 33.929688-7.652344 67.421875-22.378906 97.988281-14.730469 30.5625-22.378907 64.054688-22.378907 97.984375v206.542969c0 9.820313 7.960938 17.777344 17.78125 17.777344h137.789063c9.820312 0 17.78125-7.960938 17.78125-17.777344v-206.542969c0-33.929687-7.648438-67.421875-22.378906-97.988281-14.726563-30.5625-22.375-64.058594-22.375-97.984375zm0 0" fill="#dfede7"/><path d="m158.367188 182.296875c-14.726563-30.5625-22.375-64.058594-22.375-97.984375v-76.917969h-56.851563v76.917969c0 33.929688 7.648437 67.421875 22.378906 97.988281 14.726563 30.5625 22.378907 64.054688 22.378907 97.984375v206.542969c0 9.820313-7.964844 17.78125-17.78125 17.78125h56.847656c9.820312 0 17.78125-7.960937 17.78125-17.78125v-206.542969c0-33.929687-7.648438-67.421875-22.378906-97.988281zm0 0" fill="#d7e0dc"/><path d="m29.773438 182.296875c-14.730469 30.566406-22.378907 64.058594-22.378907 97.988281v206.539063c0 9.820312 7.960938 17.78125 17.78125 17.78125h137.792969c9.820312 0 17.777344-7.960938 17.777344-17.78125v-206.539063c0-33.929687-7.648438-67.421875-22.375-97.988281-11.691406-24.257813-18.902344-50.363281-21.390625-77.066406h-85.820313c-2.484375 26.703125-9.695312 52.808593-21.386718 77.066406zm0 0" fill="#fc4e51"/><path d="m158.367188 182.296875c-.835938-1.738281-1.644532-3.488281-2.4375-5.242187-.253907-.570313-.503907-1.144532-.753907-1.714844-.53125-1.203125-1.050781-2.410156-1.5625-3.625-.277343-.664063-.554687-1.332032-.828125-2-.476562-1.160156-.9375-2.324219-1.390625-3.492188-.257812-.660156-.519531-1.320312-.769531-1.984375-.574219-1.511719-1.128906-3.03125-1.667969-4.558593-.304687-.859376-.59375-1.71875-.890625-2.582032-.375-1.109375-.75-2.214844-1.109375-3.328125-.300781-.925781-.585937-1.855469-.875-2.785156-.261719-.84375-.519531-1.691406-.773437-2.542969-.300782-1.019531-.597656-2.042968-.886719-3.066406-.199219-.714844-.390625-1.429688-.582031-2.144531-1.121094-4.136719-2.121094-8.300781-3-12.492188-.0625-.285156-.125-.570312-.183594-.855469-.285156-1.378906-.550781-2.765624-.8125-4.148437-.066406-.375-.136719-.75-.207031-1.128906-.257813-1.425781-.507813-2.855469-.738281-4.289063-.027344-.167968-.050782-.332031-.078126-.496094-.769531-4.839843-1.386718-9.707031-1.839843-14.589843h-56.851563c2.488282 26.699219 9.699219 52.808593 21.390625 77.066406 14.726563 30.566406 22.378907 64.058594 22.378907 97.988281v206.539063c0 9.820312-7.964844 17.78125-17.78125 17.78125h56.847656c9.820312 0 17.78125-7.960938 17.78125-17.78125v-206.539063c0-33.929687-7.648438-67.421875-22.378906-97.988281zm0 0" fill="#ea3942"/><path d="m137.753906 57.933594h-87.367187c-5.714844 0-10.347657-4.632813-10.347657-10.347656v-29.847657c0-5.714843 4.632813-10.34375 10.347657-10.34375h87.367187c5.714844 0 10.347656 4.632813 10.347656 10.34375v29.847657c0 5.714843-4.632812 10.347656-10.347656 10.347656zm0 0" fill="#fccf3f"/><path d="m91.464844 57.933594h46.289062c5.714844 0 10.347656-4.632813 10.347656-10.347656v-29.847657c0-5.710937-4.632812-10.34375-10.34375-10.34375h-46.292968zm0 0" fill="#efc03c"/><path d="m7.394531 280.285156h173.351563v178.257813h-173.351563zm0 0" fill="#fccf3f"/><path d="m123.898438 280.285156h56.847656v178.257813h-56.847656zm0 0" fill="#efc03c"/><path d="m299.050781 399.460938c0-54.492188-45.707031-76.320313-102.089843-76.320313-56.382813 0-102.089844 21.828125-102.089844 76.320313 0 54.488281 45.707031 105.144531 102.089844 105.144531 56.382812 0 102.089843-50.65625 102.089843-105.144531zm0 0" fill="#fc4e51"/><path d="m196.960938 323.140625c-9.863282 0-19.402344.671875-28.425782 2.066406 42.554688 6.574219 73.667969 29.292969 73.667969 74.253907 0 44.957031-31.117187 87.296874-73.667969 100.738281 9.023438 2.851562 18.5625 4.40625 28.425782 4.40625 56.382812 0 102.089843-50.65625 102.089843-105.148438 0-54.492187-45.707031-76.316406-102.089843-76.316406zm0 0" fill="#ea3942"/><path d="m296.152344 359.230469c-11.628906-30.488281-47.5-53.589844-99.191406-53.589844-51.691407 0-87.558594 23.101563-99.1875 53.589844 5.9375 1.613281 50.007812-18.566407 50.007812-18.566407s-11.179688 28.503907-8.945312 40.238282c.929687 4.875 15.082031-8.109375 30.484374-23.285156 0 0 11.261719 51.882812 27.640626 51.882812 16.382812 0 27.644531-51.882812 27.644531-51.882812 15.402343 15.175781 29.554687 28.160156 30.480469 23.285156 2.238281-11.734375-8.941407-40.238282-8.941407-40.238282s44.066407 20.179688 50.007813 18.566407zm0 0" fill="#a0e557"/><path d="m196.960938 305.640625c-3.960938 0-7.820313.152344-11.59375.414063 22.636718 15.753906 42.796874 44.339843 50.878906 62.761718.003906 0 .003906.003906.003906.007813 10.269531 9.546875 18.152344 15.675781 18.835938 12.082031 2.238281-11.738281-8.941407-40.242188-8.941407-40.242188s44.066407 20.179688 50.007813 18.566407c-11.628906-30.488281-47.5-53.589844-99.191406-53.589844zm0 0" fill="#93cc4a"/><path d="m299.78125 365.660156c1.257812-.710937 2.292969-1.769531 2.960938-3.078125.945312-1.859375 1.0625-4.035156.316406-5.988281-6.542969-17.152344-19.625-31.683594-37.828125-42.023438-17.007813-9.65625-37.949219-15.179687-60.917969-16.152343.769531-8.402344 5.015625-22.09375 24.167969-24.667969 4.046875-.542969 6.886719-4.265625 6.34375-8.3125s-4.269531-6.882812-8.3125-6.34375c-21.585938 2.902344-30.535157 15.84375-34.238281 26.191406-1.726563 4.820313-2.449219 9.433594-2.722657 13.136719-.46875.019531-.941406.03125-1.410156.054687v-18.191406c0-34.828125-7.992187-69.820312-23.113281-101.199218-1.613282-3.347657-3.164063-6.785157-4.605469-10.226563-1.582031-3.765625-5.917969-5.535156-9.679687-3.957031-3.765626 1.582031-5.535157 5.914062-3.957032 9.679687 1.542969 3.675781 3.199219 7.351563 4.921875 10.925781 13.09375 27.164063 20.464844 57.226563 21.503907 87.382813h-158.28125c1.039062-30.15625 8.410156-60.214844 21.503906-87.382813 11.097656-23.027343 18.273437-47.519531 21.367187-72.886718h72.539063c1.15625 9.425781 2.886718 18.8125 5.171875 27.992187.984375 3.964844 4.996093 6.375 8.957031 5.394531 3.964844-.988281 6.378906-4.996093 5.394531-8.960937-2.648437-10.640625-4.503906-21.574219-5.519531-32.503906-.636719-6.828125-.957031-13.636719-.957031-20.230469v-19.917969c7.027343-2.359375 12.109375-8.996093 12.109375-16.808593v-29.847657c0-9.78125-7.957032-17.738281-17.742188-17.738281h-87.371094c-9.78125 0-17.738281 7.957031-17.738281 17.738281v29.847657c0 7.8125 5.082031 14.449218 12.113281 16.808593v19.917969c0 6.59375-.324218 13.402344-.960937 20.234375-2.417969 26-9.378906 51.082031-20.683594 74.542969-15.121093 31.375-23.113281 66.371094-23.113281 101.195312v206.539063c0 13.882812 11.292969 25.175781 25.175781 25.175781h137.792969c3.894531 0 7.683594-.894531 11.128906-2.597656 7.457032 1.710937 15.109375 2.597656 22.863282 2.597656 28.941406 0 56.484374-12.230469 77.554687-34.445312 20.292969-21.390626 31.933594-49.855469 31.933594-78.09375-.003907-12.476563-2.238281-23.789063-6.667969-33.800782zm-240.660156-267.824218c.269531-4.558594.421875-9.089844.421875-13.523438v-18.988281h69.054687v18.988281c0 4.4375.152344 8.964844.421875 13.523438zm-11.6875-80.097657c0-1.628906 1.324218-2.953125 2.953125-2.953125h87.371093c1.625 0 2.949219 1.324219 2.949219 2.953125v29.847657c0 1.628906-1.324219 2.953124-2.949219 2.953124h-87.371093c-1.628907 0-2.953125-1.324218-2.953125-2.953124zm149.527344 295.292969c23.296874 0 44.378906 4.980469 60.96875 14.398438 9.648437 5.480468 17.542968 12.289062 23.375 20.097656-9.261719-3.535156-21.394532-8.691406-32.082032-13.585938-2.742187-1.253906-5.96875-.71875-8.160156 1.351563-2.1875 2.070312-2.902344 5.265625-1.800781 8.070312 2.742187 7 5.972656 17.027344 7.632812 25.113281-3.839843-3.359374-9.308593-8.445312-17.101562-16.125-1.921875-1.890624-4.71875-2.589843-7.300781-1.820312-2.582032.769531-4.542969 2.882812-5.113282 5.515625-.027344.125-2.757812 12.589844-7.378906 24.917969-7.585938 20.234375-12.988281 21.144531-13.039062 21.144531-.050782 0-5.429688-.90625-12.992188-21.015625-4.632812-12.324219-7.398438-24.921875-7.425781-25.046875-.570313-2.632813-2.53125-4.746094-5.117188-5.515625-.691406-.207031-1.402343-.308594-2.109375-.308594-1.914062 0-3.785156.746094-5.1875 2.128906-7.792968 7.675782-13.261718 12.761719-17.097656 16.121094 1.664062-8.082031 4.886719-18.105468 7.628906-25.109375 1.097656-2.808593.386719-6-1.804687-8.070312-2.191407-2.070313-5.417969-2.609375-8.15625-1.351563-10.6875 4.894532-22.824219 10.050782-32.082031 13.585938 5.832031-7.808594 13.722656-14.617188 23.375-20.097656 16.589843-9.417969 37.671874-14.398438 60.96875-14.398438zm-171.785157 184.179688c-5.726562 0-10.386719-4.660157-10.386719-10.386719v-20.886719h62.757813c4.085937 0 7.394531-3.3125 7.394531-7.394531 0-4.085938-3.308594-7.394531-7.394531-7.394531h-62.757813v-163.46875h158.5625v12.21875c-16.59375 2.390624-31.757812 7.34375-44.660156 14.671874-18.203125 10.339844-31.285156 24.871094-37.828125 42.023438-.746093 1.953125-.628906 4.125.316407 5.988281.667968 1.308594 1.707031 2.367188 2.960937 3.078125-4.429687 10.011719-6.664063 21.324219-6.664063 33.796875 0 28.238281 11.640626 56.703125 31.933594 78.097657 7.421875 7.824218 15.652344 14.40625 24.460938 19.65625zm238.613281-29.832032c-18.253906 19.238282-41.984374 29.832032-66.828124 29.832032-7.359376 0-14.617188-.9375-21.667969-2.746094-.320313-.101563-.640625-.1875-.96875-.246094-16.378907-4.402344-31.589844-13.5625-44.1875-26.839844-17.710938-18.675781-27.871094-43.429687-27.871094-67.921875 0-14.03125 3.328125-26.136719 9.898437-36.015625 4.03125-1.40625 9.121094-3.363281 15.65625-6.054687 2.578126-1.0625 5.128907-2.132813 7.539063-3.164063-2.765625 9.464844-5.179687 20.753906-3.785156 28.066406.613281 3.21875 2.792969 5.707032 5.828125 6.652344 5.335937 1.667969 10.484375-.605468 27.941406-17.171875 1.25 4.3125 2.835938 9.335938 4.730469 14.386719 7.753906 20.683594 16.550781 30.738281 26.886719 30.738281 10.339843 0 19.132812-10.054687 26.886718-30.738281 1.894532-5.050781 3.484375-10.074219 4.730469-14.386719 17.457031 16.566407 22.605469 18.839844 27.945313 17.171875 3.035156-.945312 5.214843-3.433594 5.824218-6.652344 1.394532-7.3125-1.019531-18.601562-3.78125-28.066406 2.410156 1.03125 4.960938 2.101563 7.539063 3.164063 6.53125 2.691406 11.625 4.648437 15.65625 6.054687 6.566406 9.882813 9.898437 21.984375 9.898437 36.015625 0 24.492188-10.160156 49.246094-27.871094 67.921875zm0 0"/></svg>